<svg width="24" height="24" viewBox="0 0 24 24" fill="none" xmlns="http://www.w3.org/2000/svg">
<path d="M21.5448 6.89119V3.89137C21.5448 3.69453 21.3851 3.53486 21.1883 3.53486H19.2512V0.356507C19.2512 0.159668 19.0915 0 18.8947 0H4.6377C4.44087 0 4.28138 0.159668 4.28138 0.356507V3.53486H2.34412C2.14728 3.53486 1.9878 3.69453 1.9878 3.89137V9.51821H1.67285C0.750368 9.51821 0 10.2688 0 11.1912V22.327C0 23.2495 0.750368 24 1.67285 24H18.5887C18.5895 24 18.59 23.9999 18.5907 23.9999H21.4102C22.3327 23.9999 23.0831 23.2495 23.0831 22.327V8.55818C23.0831 7.68111 22.4045 6.96004 21.5448 6.89119ZM4.99421 0.712831H18.5384V6.88533H16.9571V3.89137C16.9571 3.69453 16.7976 3.53486 16.6007 3.53486H4.99421V0.712831ZM0.712831 22.3272V11.1912C0.712831 10.6619 1.1435 10.2312 1.67285 10.2312H3.0683C3.26514 10.2312 3.42463 10.0716 3.42463 9.87471C3.42463 9.67788 3.26514 9.51821 3.0683 9.51821H2.70063V4.24769H16.2442V6.88533H12.6301C11.7076 6.88533 10.9572 7.6357 10.9572 8.55818C10.9572 9.08754 10.5266 9.51821 9.99703 9.51821H4.49415C4.29731 9.51821 4.13764 9.67788 4.13764 9.87471C4.13764 10.0716 4.29731 10.2312 4.49415 10.2312H9.99703C10.9195 10.2312 11.6701 9.48067 11.6701 8.55818C11.6701 8.02882 12.1007 7.59816 12.6301 7.59816H18.5887C19.1183 7.59816 19.5489 8.02882 19.5489 8.55818V22.3272C19.5489 22.8562 19.1186 23.2867 18.5896 23.2872H18.5885C18.5884 23.2872 18.588 23.2872 18.5876 23.2872H1.67285C1.1435 23.2872 0.712831 22.8566 0.712831 22.3272ZM22.3702 22.3272C22.3702 22.8564 21.9396 23.2872 21.4102 23.2872H19.9576C20.1239 23.0508 20.2304 22.7698 20.2555 22.466H21.1883C21.3851 22.466 21.5448 22.3063 21.5448 22.1095V12.6594C21.5448 12.4625 21.3851 12.3031 21.1883 12.3031C20.9914 12.3031 20.8318 12.4625 20.8318 12.6594V21.753H20.2618V8.55818C20.2618 7.87099 19.845 7.27937 19.2512 7.02229V4.24769H20.8318V11.2337C20.8318 11.4306 20.9914 11.59 21.1883 11.59C21.3851 11.59 21.5448 11.4306 21.5448 11.2337V7.60878C22.0104 7.67451 22.3702 8.0746 22.3702 8.55818V22.3272Z" fill="#596E79"/>
<path d="M4.57947 6.10133H13.1336C13.3304 6.10133 13.4899 5.94166 13.4899 5.74482C13.4899 5.54798 13.3304 5.38831 13.1336 5.38831H4.57947C4.38263 5.38831 4.22314 5.54798 4.22314 5.74482C4.22314 5.94166 4.38263 6.10133 4.57947 6.10133Z" fill="#596E79"/>
<path d="M4.57947 7.88325H9.47278C9.66962 7.88325 9.8291 7.72376 9.8291 7.52692C9.8291 7.3299 9.66962 7.17041 9.47278 7.17041H4.57947C4.38263 7.17041 4.22314 7.3299 4.22314 7.52692C4.22314 7.72376 4.38263 7.88325 4.57947 7.88325Z" fill="#596E79"/>
<path d="M18.0312 14.5469H16.7707C16.7178 14.3984 16.6574 14.2527 16.5897 14.1104L17.4812 13.2184C17.6764 13.0232 17.6764 12.7067 17.4812 12.5114L16.0667 11.0969C15.8715 10.9017 15.555 10.9017 15.3597 11.0969L14.4677 11.9889C14.3254 11.9211 14.1797 11.8607 14.0312 11.8079V10.5469C14.0312 10.2707 13.8074 10.0469 13.5312 10.0469H11.5312C11.2551 10.0469 11.0312 10.2707 11.0312 10.5469V11.8079C10.8827 11.8606 10.737 11.9208 10.5947 11.9884L9.70276 11.0969C9.50753 10.9017 9.19103 10.9017 8.99574 11.0969L7.58125 12.5114C7.38606 12.7066 7.38606 13.0231 7.58125 13.2184L8.47323 14.1104C8.4055 14.2527 8.34512 14.3984 8.29225 14.5469H7.03126C6.75512 14.5469 6.53125 14.7707 6.53125 15.0469V17.0469C6.53125 17.323 6.75512 17.5469 7.03126 17.5469H8.29225C8.34493 17.6954 8.40522 17.8411 8.47276 17.9834L7.58125 18.8753C7.38606 19.0706 7.38606 19.3871 7.58125 19.5824L8.99574 20.9969C9.19098 21.192 9.50748 21.192 9.70276 20.9969L10.5947 20.1049C10.7371 20.1726 10.8827 20.233 11.0312 20.2859V21.5468C11.0312 21.823 11.2551 22.0469 11.5313 22.0469H13.5313C13.8074 22.0469 14.0313 21.823 14.0313 21.5468V20.2863C14.1798 20.2334 14.3255 20.173 14.4678 20.1053L15.3598 20.9969C15.555 21.192 15.8715 21.192 16.0668 20.9969L17.4813 19.5824C17.6765 19.3871 17.6765 19.0706 17.4813 18.8753L16.5893 17.9834C16.657 17.841 16.7174 17.6954 16.7703 17.5469H18.0313C18.3074 17.5469 18.5313 17.323 18.5313 17.0468V15.0468C18.5312 14.7707 18.3074 14.5469 18.0312 14.5469ZM17.5313 16.5464H16.4008C16.1728 16.5464 15.9737 16.7006 15.9168 16.9214C15.8352 17.2373 15.7098 17.5402 15.5443 17.8214C15.4282 18.0179 15.4598 18.268 15.6213 18.4294L16.4213 19.2294L15.7143 19.9364L14.9143 19.1364C14.7529 18.975 14.5028 18.9433 14.3063 19.0594C14.0251 19.2249 13.7221 19.3503 13.4063 19.4319C13.1855 19.4889 13.0313 19.6879 13.0313 19.9159V21.0469H12.0313L12.0318 19.9169C12.0317 19.6889 11.8775 19.4898 11.6568 19.4329C11.3409 19.3513 11.0379 19.2259 10.7568 19.0604C10.5603 18.9442 10.3101 18.9759 10.1488 19.1374L9.34876 19.9374L8.64175 19.2304L9.44176 18.4304C9.6032 18.269 9.63489 18.0188 9.51878 17.8223C9.35326 17.5412 9.22787 17.2382 9.14626 16.9223C9.08926 16.7016 8.89023 16.5474 8.66228 16.5473H7.53128V15.5474H8.66176C8.88971 15.5473 9.08879 15.3931 9.14575 15.1724C9.22735 14.8565 9.35274 14.5535 9.51826 14.2724C9.63437 14.0759 9.60268 13.8257 9.44124 13.6644L8.64123 12.8643L9.34824 12.1573L10.1483 12.9573C10.3096 13.1188 10.5598 13.1505 10.7563 13.0344C11.0374 12.8688 11.3404 12.7434 11.6563 12.6618C11.877 12.6048 12.0312 12.4058 12.0313 12.1779V11.0469H13.0308V12.1773C13.0308 12.4053 13.1851 12.6044 13.4058 12.6613C13.7217 12.7429 14.0246 12.8683 14.3058 13.0338C14.5023 13.1499 14.7525 13.1183 14.9138 12.9568L15.7138 12.1568L16.4208 12.8638L15.6208 13.6638C15.4594 13.8252 15.4277 14.0754 15.5438 14.2719C15.7093 14.553 15.8347 14.856 15.9163 15.1719C15.9733 15.3926 16.1723 15.5468 16.4003 15.5468H17.5313V16.5464Z" fill="#596E79"/>
<path d="M12.5313 14.0469C11.4267 14.0469 10.5312 14.9423 10.5312 16.0469C10.5312 17.1514 11.4267 18.0469 12.5313 18.0469C13.6358 18.0469 14.5313 17.1515 14.5313 16.0469C14.5313 14.9423 13.6358 14.0469 12.5313 14.0469ZM12.5313 17.0469C11.979 17.0469 11.5313 16.5992 11.5313 16.0469C11.5313 15.4946 11.979 15.0469 12.5313 15.0469C13.0835 15.0469 13.5312 15.4946 13.5312 16.0469C13.5312 16.5992 13.0835 17.0469 12.5313 17.0469Z" fill="#596E79"/>
</svg>