<svg width="24" height="24" viewBox="0 0 24 24" fill="none" xmlns="http://www.w3.org/2000/svg">
<path d="M23 8.9985H21.01C20.8685 8.57002 20.6964 8.15231 20.495 7.74848L21.9 6.3435C21.9001 6.34341 21.9002 6.34331 21.9003 6.34322C22.2907 5.95261 22.2906 5.31947 21.9 4.929L19.071 2.1C18.6753 1.72233 18.0527 1.72233 17.657 2.1L16.25 3.50602C15.8462 3.30464 15.4285 3.13252 15 2.991V0.999984C15 0.447703 14.5523 0 14 0H10C9.4477 0 9 0.447703 9 0.999984V2.991C8.57105 3.13209 8.15278 3.30389 7.74848 3.50498L6.3435 2.1C5.94783 1.72177 5.32467 1.72177 4.929 2.1L2.1 4.929C1.70963 5.31952 1.70963 5.95252 2.1 6.34298L3.50602 7.74998C3.30464 8.15377 3.13252 8.57152 2.991 9H0.999984C0.447703 9 0 9.4477 0 9.99998V12H0.999984V9.99998H3.35948C3.58233 10 3.77827 9.85261 3.84 9.63848C4.01344 9.03263 4.25391 8.448 4.557 7.89548C4.66486 7.70044 4.63059 7.45758 4.473 7.29998L2.80748 5.63597L5.63597 2.80748L7.30195 4.473C7.45945 4.63036 7.70203 4.66458 7.89694 4.557C8.44903 4.25409 9.03314 4.01363 9.63844 3.84C9.85256 3.77827 9.99998 3.58233 9.99994 3.35948V0.999984H13.9999V3.35948C13.9999 3.58233 14.1473 3.77827 14.3614 3.84C14.9674 4.01348 15.5522 4.25395 16.1049 4.557C16.2998 4.66458 16.5424 4.63036 16.6999 4.473L18.3639 2.80748L21.1924 5.63597L19.5269 7.30148C19.3693 7.45908 19.335 7.70194 19.4429 7.89698C19.7459 8.44903 19.9864 9.03314 20.1599 9.63848C20.2216 9.85261 20.4176 10 20.6404 9.99998H22.9999V12H24V9.99848C24 9.4462 23.5523 8.9985 23 8.9985Z" fill="#596E79"/>
<path d="M12 6.5C9.23861 6.5 7 8.73856 7 11.5V12H7.99998V11.5C8.00003 9.29084 9.79089 7.49998 12 7.49998C14.2091 7.49998 16 9.29084 16 11.5V12H17V11.5C17 8.73856 14.7614 6.5 12 6.5Z" fill="#596E79"/>
<path d="M12.5 2H11.5V2.99998H12.5V2Z" fill="#596E79"/>
<path d="M5.99998 5.00012H5V6.00011H5.99998V5.00012Z" fill="#596E79"/>
<path d="M2.99998 11.0001H2V12.0001H2.99998V11.0001Z" fill="#596E79"/>
<path d="M22 11.0001H21V12.0001H22V11.0001Z" fill="#596E79"/>
<path d="M19 5.00012H18V6.00011H19V5.00012Z" fill="#596E79"/>
<path d="M6 19H0.999984C0.447703 19 0 19.4477 0 20V23C0 23.5523 0.447703 24 0.999984 24H6C6.55228 24 6.99998 23.5523 6.99998 23V20C6.99998 19.4477 6.55228 19 6 19ZM6 23H0.999984V20H6V23Z" fill="#596E79"/>
<path d="M23 19H18C17.4477 19 17 19.4477 17 20V23C17 23.5523 17.4477 24 18 24H23C23.5523 24 24 23.5523 24 23V20C24 19.4477 23.5523 19 23 19ZM23 23H18V20H23V23Z" fill="#596E79"/>
<path d="M14.4999 19H9.49998C8.9477 19 8.5 19.4477 8.5 20V23C8.5 23.5523 8.9477 24 9.49998 24H14.5C15.0523 24 15.5 23.5523 15.5 23V20C15.5 19.4477 15.0522 19 14.4999 19ZM14.5 23H14.4999H9.49998V20H14.5V23Z" fill="#596E79"/>
<path d="M20.5 15H3.50002C3.22388 15 3 15.2239 3 15.5V18H3.99998V16H20V18H21V15.5C21 15.2239 20.7761 15 20.5 15Z" fill="#596E79"/>
<path d="M12.5 11.4999H11.5V18H12.5V11.4999Z" fill="#596E79"/>
<path d="M2.99998 21H2V22H2.99998V21Z" fill="#596E79"/>
<path d="M4.99998 21H4V22H4.99998V21Z" fill="#596E79"/>
<path d="M11.5 21H10.5V22H11.5V21Z" fill="#596E79"/>
<path d="M13.5 21H12.5V22H13.5V21Z" fill="#596E79"/>
<path d="M20 21H19V22H20V21Z" fill="#596E79"/>
<path d="M22 21H21V22H22V21Z" fill="#596E79"/>
<path d="M12 9C10.6193 9 9.5 10.1193 9.5 11.5V12H10.5V11.5C10.5 10.6716 11.1716 9.99998 12 9.99998C12.8284 9.99998 13.5 10.6716 13.5 11.5V12H14.5V11.5C14.5 10.1193 13.3807 9 12 9Z" fill="#596E79"/>
</svg>
