<svg width="28" height="27" viewBox="0 0 28 27" fill="none" xmlns="http://www.w3.org/2000/svg">
<path d="M5.89827 26.1014H22.1014V9.89764H5.89827V26.1014ZM22.9997 27H5V9H22.9997V27Z" fill="#596E79"/>
<path d="M15.8425 16.2844H19.9862V12.1409H15.8425V16.2844ZM20.984 17.2831H14.8438V11.1422H20.984V17.2831Z" fill="#596E79"/>
<path d="M14.2597 16.663V16.2844H13.1561V11.1422H12.1609V12.3627H12.1574V16.2844H11.0541H8.01392V12.1409V11.1422H7.01489V17.2831H11.0541H13.1561H13.2622V18.1383H14.261V16.663H14.2597Z" fill="#596E79"/>
<path d="M7.01489 24.8578H8.01392V23.9991V19.8556H12.1574V23.6867H12.1609V24.8578H13.1561V18.8569H7.01489V24.8578Z" fill="#596E79"/>
<path d="M20.9846 18.8569H14.8438V24.8578H15.8406V23.6867H15.8421V19.8556H19.9859V23.6867H19.9875V24.8578H20.9846V18.8569Z" fill="#596E79"/>
<path d="M22.4 12.1153H26L14 0.997681L2 12.1153H5.6" stroke="#596E79"/>
</svg>
