<svg width="24" height="24" viewBox="0 0 24 24" fill="none" xmlns="http://www.w3.org/2000/svg">
<path d="M23 9H21.0095C20.8676 8.57161 20.6954 8.15386 20.494 7.74998L21.9 6.3435C21.9001 6.34341 21.9002 6.34331 21.9003 6.34322C22.2908 5.95261 22.2907 5.31947 21.9 4.929L19.0715 2.1C19.0712 2.09972 19.071 2.09948 19.0707 2.0992C18.68 1.70888 18.0468 1.70925 17.6565 2.1L16.25 3.50602C15.8462 3.30469 15.4284 3.13256 15 2.991V0.999984C15 0.447703 14.5523 0 14 0H10C9.4477 0 9 0.447703 9 0.999984V2.991C8.57156 3.13256 8.15381 3.30469 7.74998 3.50602L6.3435 2.1C6.34322 2.09972 6.34298 2.09948 6.3427 2.0992C5.95195 1.70888 5.31881 1.70925 4.92848 2.1L2.1 4.929C1.70962 5.31952 1.70962 5.95252 2.1 6.34298L3.50602 7.74998C3.30469 8.15386 3.13237 8.57161 2.99053 9H0.999984C0.447703 9 0 9.4477 0 9.99998V14C0 14.5523 0.447703 15 0.999984 15H2.99048C3.13237 15.4284 3.30464 15.8461 3.50597 16.25L2.1 17.6565C2.09991 17.6566 2.09981 17.6567 2.09972 17.6568C1.7093 18.0474 1.70939 18.6805 2.1 19.071L4.92848 21.9C4.92877 21.9003 4.929 21.9005 4.92928 21.9008C5.32003 22.2911 5.95317 22.2908 6.3435 21.9L7.74998 20.494C8.15381 20.6953 8.57156 20.8674 9 21.009V23C9 23.5523 9.4477 24 9.99998 24H14C14.5522 24 15 23.5523 15 23V21.009C15.4284 20.8674 15.8461 20.6953 16.25 20.494L17.6565 21.9C17.6567 21.9003 17.657 21.9005 17.6572 21.9008C18.048 22.2911 18.6811 22.2908 19.0715 21.9L21.9 19.071C22.2903 18.6805 22.2903 18.0475 21.9 17.657L20.4939 16.25C20.6953 15.8461 20.8676 15.4284 21.0094 15H22.9999C23.5522 15 23.9999 14.5523 23.9999 14V10C24 9.4477 23.5523 9 23 9ZM20.6405 14C20.4171 14.0002 20.221 14.1486 20.16 14.3635C19.9866 14.9689 19.7461 15.553 19.443 16.105C19.3354 16.2999 19.3696 16.5425 19.527 16.7L21.1925 18.364L18.364 21.1925L16.698 19.527C16.5405 19.3696 16.298 19.3354 16.1031 19.443C15.5509 19.7458 14.9669 19.9863 14.3616 20.16C14.1474 20.2217 14 20.4177 14.0001 20.6405V23H10.0001V20.6405C10.0001 20.4177 9.8527 20.2217 9.63858 20.16C9.03328 19.9863 8.44922 19.7458 7.89708 19.443C7.8232 19.402 7.74009 19.3805 7.65558 19.3805C7.52226 19.38 7.3943 19.4327 7.30008 19.527L5.63559 21.1925L2.80758 18.364L4.47309 16.698C4.63045 16.5405 4.66467 16.298 4.55709 16.1031C4.254 15.5511 4.01348 14.967 3.84009 14.3616C3.77836 14.1474 3.58242 14 3.35958 14.0001H0.999984V10.0001H3.35948C3.58233 10.0001 3.77827 9.8527 3.84 9.63858C4.01339 9.03272 4.25391 8.44809 4.557 7.89558C4.66486 7.70053 4.63059 7.45767 4.473 7.30008L2.80748 5.63606L5.63597 2.80758L7.30195 4.47309C7.45945 4.63045 7.70203 4.66467 7.89694 4.55709C8.44908 4.25428 9.03314 4.01381 9.63844 3.84009C9.85256 3.77836 9.99998 3.58242 9.99994 3.35958V0.999984H13.9999V3.35948C13.9999 3.58233 14.1473 3.77827 14.3614 3.84C14.9674 4.01358 15.5522 4.25405 16.1049 4.557C16.2998 4.66458 16.5424 4.63036 16.6999 4.473L18.3644 2.80748L21.1924 5.63597L19.5269 7.30148C19.3693 7.45908 19.335 7.70194 19.4429 7.89698C19.7459 8.44903 19.9864 9.03314 20.1599 9.63848C20.2216 9.85261 20.4176 10 20.6404 9.99998H22.9999V14H20.6405Z" fill="#596E79"/>
<path d="M14.984 6.87844C14.7216 5.73408 13.828 4.8405 12.6836 4.57805C11.0351 4.19996 9.39212 5.2299 9.01402 6.87844C9.00409 6.91819 8.99902 6.95897 8.99902 6.99994V7.98493C8.99902 10.2365 10.317 12 11.999 12C13.681 12 14.999 10.2365 14.999 7.98497V6.99999C14.999 6.95897 14.994 6.91819 14.984 6.87844ZM13.999 7.98497C13.999 9.64997 13.102 11 11.999 11C10.896 11 9.99901 9.64997 9.99901 7.98497V7.07049V7.06997C10.1815 6.32414 10.7638 5.74182 11.5096 5.55933C12.6142 5.28905 13.7288 5.96541 13.999 7.06997V7.98497Z" fill="#596E79"/>
<path d="M14.4989 12C14.4583 12.0026 14.4176 12.0026 14.3769 12C13.8583 11.9663 13.4652 11.5186 13.4989 11H12.4989C12.4978 11.0379 12.4978 11.0758 12.4989 11.1137C12.5303 12.1869 13.4257 13.0314 14.4989 13C15.3273 13 15.9989 13.6716 15.9989 14.5V18.5H16.9989V14.5C16.9972 13.12 15.8789 12.0016 14.4989 12Z" fill="#596E79"/>
<path d="M11.499 11H10.499C10.5016 11.0406 10.5016 11.0813 10.499 11.122C10.4653 11.6406 10.0176 12.0337 9.49901 12C8.11896 12.0017 7.00066 13.12 6.99902 14.5V18.5H7.99901V14.5C7.99901 13.6716 8.67059 13 9.49901 13C9.53688 13.0011 9.5748 13.0011 9.61268 13C10.6858 12.9686 11.5304 12.0732 11.499 11Z" fill="#596E79"/>
<path d="M9.99901 15H8.99902V18.5002H9.99901V15Z" fill="#596E79"/>
<path d="M14.9995 15H13.9995V18.5002H14.9995V15Z" fill="#596E79"/>
<path d="M7.49904 11V8.5H6.49905V10.994C6.50238 11.0248 6.50257 11.0559 6.49962 11.0867C6.47552 11.339 6.25141 11.5241 5.99909 11.5H3.99902V12.5H5.99904C6.02745 12.5008 6.0559 12.5008 6.08431 12.5C6.8892 12.4764 7.52257 11.8049 7.49904 11Z" fill="#596E79"/>
<path d="M2.99901 11.4999H1.99902V12.4998H2.99901V11.4999Z" fill="#596E79"/>
<path d="M7.4995 6.50012H6.49951V7.50011H7.4995V6.50012Z" fill="#596E79"/>
<path d="M17.9992 11.5C17.9695 11.5029 17.9395 11.5029 17.9098 11.5C17.6583 11.4753 17.4745 11.2515 17.4992 11V8.5H16.4992V11C16.4983 11.0284 16.4983 11.0568 16.4992 11.0853C16.5227 11.8901 17.1943 12.5236 17.9992 12.5H19.9992V11.5H17.9992Z" fill="#596E79"/>
<path d="M21.999 11.4999H20.999V12.4998H21.999V11.4999Z" fill="#596E79"/>
<path d="M17.499 6.50012H16.499V7.50011H17.499V6.50012Z" fill="#596E79"/>
</svg>
