<svg width="24" height="24" viewBox="0 0 24 24" fill="none" xmlns="http://www.w3.org/2000/svg">
<path d="M23.8907 8.5188C23.796 8.29285 23.619 8.11725 23.3923 8.0246L21.7912 7.36945C21.5647 7.27679 21.3153 7.27771 21.0894 7.37256C20.8632 7.46741 20.6878 7.64447 20.595 7.87097L18.7723 12.3257V5.0462C18.7723 4.95172 18.7348 4.8609 18.668 4.79407L13.9781 0.10437C13.9113 0.0375366 13.8206 0 13.7261 0H0.356506C0.159668 0 0 0.159668 0 0.356506V3.1073C0 3.30414 0.159668 3.46381 0.356506 3.46381C0.553345 3.46381 0.71283 3.30414 0.71283 3.1073V0.71283H13.3694V5.0462C13.3694 5.24304 13.5291 5.40253 13.726 5.40253H18.0595V14.0682L16.4881 17.9084C16.4683 17.9568 16.4594 18.009 16.4621 18.0612L16.6298 21.4162C16.6368 21.5543 16.7228 21.6758 16.8508 21.7282C16.8944 21.7462 16.9402 21.7548 16.9858 21.7548C17.0737 21.7548 17.1601 21.7224 17.2271 21.6606L18.0593 20.8945V23.2872H0.71283V4.53314C0.71283 4.3363 0.553345 4.17664 0.356506 4.17664C0.159668 4.17664 0 4.3363 0 4.53314V23.6435C0 23.8403 0.159668 24 0.356506 24H18.4158C18.6127 24 18.7723 23.8403 18.7723 23.6435V20.2383L19.6987 19.3856C19.7371 19.35 19.7672 19.3066 19.7871 19.2583L21.403 15.3087C21.4775 15.1265 21.3902 14.9183 21.208 14.8438C21.026 14.7693 20.8178 14.8564 20.7433 15.0386L19.2621 18.6584L17.2828 17.8486L20.3243 10.415L22.3037 11.2249L21.2543 13.7897C21.1798 13.9719 21.267 14.1801 21.4493 14.2546C21.6315 14.3291 21.8395 14.2419 21.9141 14.0598L23.894 9.22083C23.9866 8.99414 23.9855 8.74475 23.8907 8.5188ZM14.0825 1.21674L17.5554 4.68988H14.0825V1.21674ZM17.202 18.5856L18.8033 19.2407L17.3038 20.6212L17.202 18.5856ZM23.2341 8.95074L22.5736 10.565L20.5942 9.75513L21.2547 8.14087C21.2754 8.09052 21.3146 8.05115 21.3649 8.03009C21.4155 8.00885 21.4709 8.00848 21.5213 8.02917L23.1224 8.68433C23.1727 8.70483 23.2121 8.74402 23.2332 8.79437C23.2544 8.84491 23.2548 8.90039 23.2341 8.95074Z" fill="#596E79"/>
<path d="M11.8616 3.89136H7.44196C7.24512 3.89136 7.08545 4.05084 7.08545 4.24768C7.08545 4.44452 7.24512 4.60419 7.44196 4.60419H11.8616C12.0584 4.60419 12.2181 4.44452 12.2181 4.24768C12.2181 4.05084 12.0584 3.89136 11.8616 3.89136Z" fill="#596E79"/>
<path d="M2.7569 11.709H5.5749C5.77173 11.709 5.93122 11.5493 5.93122 11.3525V8.82816L6.46314 8.15103C6.58472 7.99631 6.55781 7.77219 6.40308 7.65061C6.24836 7.52902 6.02424 7.55594 5.90266 7.71066L5.53534 8.17813H2.7569C2.56006 8.17813 2.40039 8.33762 2.40039 8.53446V11.3525C2.40039 11.5493 2.56006 11.709 2.7569 11.709ZM3.11322 8.89096H4.97522L4.40796 9.61295L4.01136 9.21616C3.8722 9.077 3.64643 9.077 3.50727 9.21616C3.3681 9.3555 3.3681 9.58109 3.50727 9.72025L4.18805 10.401C4.25507 10.4681 4.34589 10.5054 4.44001 10.5054C4.44715 10.5054 4.45429 10.5052 4.46143 10.5049C4.56305 10.4988 4.65735 10.4494 4.72034 10.3692L5.21839 9.73545V10.9961H3.11322V8.89096Z" fill="#596E79"/>
<path d="M15.6635 8.73157H8.03619C7.83936 8.73157 7.67969 8.89124 7.67969 9.08807C7.67969 9.28491 7.83936 9.44458 8.03619 9.44458H15.6635C15.8605 9.44458 16.02 9.28491 16.02 9.08807C16.02 8.89124 15.8605 8.73157 15.6635 8.73157Z" fill="#596E79"/>
<path d="M8.03619 11.1553H14.1666C14.3634 11.1553 14.5229 10.9957 14.5229 10.7988C14.5229 10.602 14.3634 10.4425 14.1666 10.4425H8.03619C7.83936 10.4425 7.67969 10.602 7.67969 10.7988C7.67969 10.9957 7.83936 11.1553 8.03619 11.1553Z" fill="#596E79"/>
<path d="M2.40039 16.0334C2.40039 16.2302 2.56006 16.3899 2.7569 16.3899H5.5749C5.77173 16.3899 5.93122 16.2302 5.93122 16.0334V13.5091L6.46314 12.8319C6.58472 12.6772 6.55781 12.4531 6.40308 12.3315C6.24836 12.2099 6.02424 12.2368 5.90266 12.3916L5.53534 12.859H2.7569C2.56006 12.859 2.40039 13.0185 2.40039 13.2154V16.0334ZM3.11322 13.5719H4.97522L4.40796 14.2939L4.01136 13.8971C3.8722 13.7579 3.64643 13.7579 3.50727 13.8971C3.3681 14.0364 3.3681 14.262 3.50727 14.4012L4.18805 15.0819C4.25507 15.149 4.34589 15.1863 4.44001 15.1863C4.44715 15.1863 4.45429 15.1861 4.46143 15.1858C4.56305 15.1797 4.65735 15.1303 4.72034 15.0501L5.21839 14.4164V15.677H3.11322V13.5719Z" fill="#596E79"/>
<path d="M15.6635 13.4125H8.03619C7.83936 13.4125 7.67969 13.5721 7.67969 13.769C7.67969 13.9658 7.83936 14.1253 8.03619 14.1253H15.6635C15.8605 14.1253 16.02 13.9658 16.02 13.769C16.02 13.5721 15.8605 13.4125 15.6635 13.4125Z" fill="#596E79"/>
<path d="M8.03619 15.8362H10.3173C10.5142 15.8362 10.6736 15.6766 10.6736 15.4797C10.6736 15.2829 10.5142 15.1234 10.3173 15.1234H8.03619C7.83936 15.1234 7.67969 15.2829 7.67969 15.4797C7.67969 15.6766 7.83936 15.8362 8.03619 15.8362Z" fill="#596E79"/>
<path d="M2.40039 20.7141C2.40039 20.9109 2.56006 21.0706 2.7569 21.0706H5.57489C5.77173 21.0706 5.93121 20.9109 5.93121 20.7141V17.8963C5.93121 17.6995 5.77173 17.5398 5.57489 17.5398H2.7569C2.56006 17.5398 2.40039 17.6995 2.40039 17.8963V20.7141ZM3.11322 18.2526H5.21838V20.3576H3.11322V18.2526Z" fill="#596E79"/>
<path d="M16.02 18.4499C16.02 18.2531 15.8605 18.0934 15.6635 18.0934H8.03619C7.83936 18.0934 7.67969 18.2531 7.67969 18.4499C7.67969 18.6467 7.83936 18.8062 8.03619 18.8062H15.6635C15.8605 18.8062 16.02 18.6467 16.02 18.4499Z" fill="#596E79"/>
<path d="M8.03619 19.8042C7.83936 19.8042 7.67969 19.9639 7.67969 20.1607C7.67969 20.3575 7.83936 20.5172 8.03619 20.5172H14.5229C14.7199 20.5172 14.8794 20.3575 14.8794 20.1607C14.8794 19.9639 14.7199 19.8042 14.5229 19.8042H8.03619Z" fill="#596E79"/>
</svg>
