<svg width="24" height="24" viewBox="0 0 24 24" fill="none" xmlns="http://www.w3.org/2000/svg">
<path d="M12 0C5.37257 0 0 5.37257 0 12C0 18.6274 5.37257 24 12 24V23C5.92485 23 0.999982 18.0751 0.999982 12C0.999982 5.92485 5.92485 0.999982 12 0.999982C18.0751 0.999982 23 5.92485 23 12H24C24 5.37257 18.6274 0 12 0Z" fill="#596E79"/>
<path d="M12 2.5C6.75329 2.5 2.5 6.75329 2.5 12C2.5 17.2467 6.75329 21.5 12 21.5V20.5C7.30557 20.5 3.50003 16.6944 3.50003 12C3.50003 7.30566 7.30557 3.50003 12 3.50003C16.6944 3.50003 20.5 7.30557 20.5 12H21.4999C21.5 6.75329 17.2467 2.5 12 2.5Z" fill="#596E79"/>
<path d="M23.5 16.5H22.2394C22.1866 16.3515 22.1262 16.2058 22.0585 16.0635L22.95 15.1715C23.1452 14.9763 23.1452 14.6598 22.95 14.4645L21.5355 13.05C21.3402 12.8548 21.0237 12.8548 20.8285 13.05L19.9365 13.942C19.7942 13.8742 19.6485 13.8139 19.5 13.761V12.5C19.5 12.2239 19.2761 12 19 12H17C16.7238 12 16.4999 12.2239 16.4999 12.5V13.761C16.3515 13.8137 16.2058 13.874 16.0634 13.9415L15.1715 13.05C14.9763 12.8548 14.6598 12.8548 14.4645 13.05L13.05 14.4645C12.8548 14.6597 12.8548 14.9762 13.05 15.1715L13.942 16.0635C13.8742 16.2058 13.8139 16.3515 13.761 16.5H12.5C12.2239 16.5 12 16.7239 12 17V19C12 19.2762 12.2239 19.5 12.5 19.5H13.761C13.8137 19.6485 13.874 19.7942 13.9415 19.9365L13.05 20.8285C12.8548 21.0237 12.8548 21.3402 13.05 21.5355L14.4645 22.95C14.6597 23.1452 14.9762 23.1452 15.1715 22.95L16.0635 22.058C16.2058 22.1257 16.3515 22.1861 16.5 22.239V23.5C16.5 23.7761 16.7239 24 17 24H19C19.2762 24 19.5 23.7761 19.5 23.5V22.2394C19.6485 22.1866 19.7942 22.1262 19.9365 22.0585L20.8285 22.95C21.0237 23.1452 21.3402 23.1452 21.5355 22.95L22.95 21.5355C23.1452 21.3402 23.1452 21.0237 22.95 20.8285L22.058 19.9365C22.1258 19.7942 22.1862 19.6485 22.239 19.5H23.5C23.7761 19.5 24 19.2761 24 19V17C24 16.7239 23.7761 16.5 23.5 16.5ZM23 18.4995H21.8695C21.6416 18.4995 21.4425 18.6538 21.3855 18.8745C21.3039 19.1904 21.1785 19.4933 21.013 19.7745C20.8969 19.971 20.9286 20.2212 21.09 20.3825L21.89 21.1825L21.183 21.8895L20.383 21.0895C20.2217 20.9281 19.9715 20.8964 19.775 21.0125C19.4938 21.178 19.1909 21.3034 18.875 21.385C18.6543 21.442 18.5 21.641 18.5 21.869V23H17.5L17.5005 21.87C17.5005 21.642 17.3463 21.443 17.1255 21.386C16.8096 21.3044 16.5067 21.179 16.2255 21.0135C16.029 20.8974 15.7789 20.9291 15.6175 21.0905L14.8175 21.8905L14.1105 21.1835L14.9105 20.3835C15.0719 20.2221 15.1036 19.972 14.9875 19.7755C14.822 19.4943 14.6966 19.1914 14.615 18.8755C14.558 18.6547 14.359 18.5005 14.131 18.5005H13V17.5005H14.1305C14.3585 17.5004 14.5575 17.3462 14.6145 17.1255C14.6961 16.8096 14.8215 16.5066 14.987 16.2255C15.1031 16.029 15.0714 15.7788 14.91 15.6175L14.11 14.8175L14.817 14.1104L15.617 14.9105C15.7784 15.0719 16.0285 15.1036 16.225 14.9875C16.5062 14.822 16.8091 14.6966 17.125 14.615C17.3458 14.558 17.5 14.3589 17.5 14.131V13H18.4995V14.1305C18.4996 14.3584 18.6538 14.5575 18.8745 14.6144C19.1904 14.6961 19.4934 14.8214 19.7745 14.987C19.971 15.1031 20.2212 15.0714 20.3825 14.9099L21.1826 14.1099L21.8896 14.8169L21.0896 15.617C20.9281 15.7783 20.8964 16.0285 21.0125 16.225C21.1781 16.5061 21.3035 16.8091 21.3851 17.125C21.4421 17.3457 21.6411 17.4999 21.869 17.5H23V18.4995Z" fill="#596E79"/>
<path d="M18 16C16.8955 16 16 16.8955 16 18C16 19.1046 16.8954 20 18 20C19.1046 20 20 19.1046 20 18C20 16.8955 19.1046 16 18 16ZM18 19C17.4477 19 17 18.5523 17 18C17 17.4477 17.4477 17 18 17C18.5523 17 19 17.4477 19 18C19 18.5523 18.5523 19 18 19Z" fill="#596E79"/>
<path d="M12.4995 3H11.4995V5.99999H12.4995V3Z" fill="#596E79"/>
<path d="M5.99999 11.4999H3V12.4999H5.99999V11.4999Z" fill="#596E79"/>
<path d="M5.85357 5.64667L5.14648 6.35376L7.14643 8.35371L7.85352 7.64662L5.85357 5.64667Z" fill="#596E79"/>
<path d="M7.14644 15.6463L5.14648 17.6462L5.85357 18.3533L7.85353 16.3534L7.14644 15.6463Z" fill="#596E79"/>
<path d="M11.5 8.00012V11.7931L9.14648 14.1465L9.8535 14.8536L12.3535 12.3536C12.4473 12.2598 12.5 12.1327 12.5 12.0001V8.00012H11.5Z" fill="#596E79"/>
</svg>
