<svg width="24" height="24" viewBox="0 0 24 24" fill="none" xmlns="http://www.w3.org/2000/svg">
<path d="M23.2258 16.2581H22.4516V15.0514C22.4516 14.2173 21.9197 13.479 21.1281 13.2155L18.9677 12.4954V12.178C19.2607 11.9151 19.4864 11.58 19.6161 11.1995C20.3455 11.0744 20.9032 10.442 20.9032 9.67742V8.12903C20.9032 6.20791 19.3405 4.64516 17.4194 4.64516C17.2886 4.64516 17.1597 4.65367 17.0323 4.66803V2.32258C17.4592 2.32258 17.8065 1.97537 17.8065 1.54839V0.774194C17.8065 0.347215 17.4592 0 17.0323 0H0.774194C0.347215 0 0 0.347215 0 0.774194V1.54839C0 1.97537 0.347215 2.32258 0.774194 2.32258V13.1613H8.51613V15.5389C7.84986 15.7118 7.35484 16.3127 7.35484 17.0323C7.35484 17.8862 8.04927 18.5806 8.90323 18.5806C9.75718 18.5806 10.4516 17.8862 10.4516 17.0323C10.4516 16.3127 9.95659 15.7118 9.29032 15.5389V13.1613H13.8727L13.7106 13.2155C12.919 13.479 12.3871 14.2173 12.3871 15.0514V16.2581H11.6129C11.1859 16.2581 10.8387 16.6053 10.8387 17.0323V17.8065C10.8387 18.2334 11.1859 18.5806 11.6129 18.5806V24H23.2258V18.5806C23.6528 18.5806 24 18.2334 24 17.8065V17.0323C24 16.6053 23.6528 16.2581 23.2258 16.2581ZM9.67742 17.0323C9.67742 17.4592 9.3302 17.8065 8.90323 17.8065C8.47625 17.8065 8.12903 17.4592 8.12903 17.0323C8.12903 16.6053 8.47625 16.2581 8.90323 16.2581C9.3302 16.2581 9.67742 16.6053 9.67742 17.0323ZM15.0968 10.3441C14.8664 10.2097 14.7097 9.96264 14.7097 9.67742C14.7097 9.3922 14.8664 9.14516 15.0968 9.01077V10.3441ZM16.6452 12.6387C16.8879 12.725 17.1476 12.7742 17.4194 12.7742C17.6912 12.7742 17.9509 12.7247 18.1935 12.6387V12.667L17.4194 13.9576L16.6452 12.667V12.6387ZM17.4194 12C16.5654 12 15.871 11.3056 15.871 10.4516V8.90323H18.9677V10.4516C18.9677 11.3056 18.2733 12 17.4194 12ZM19.7419 10.3441V9.01115C19.9723 9.14554 20.129 9.39258 20.129 9.6778C20.129 9.96302 19.9723 10.2097 19.7419 10.3441ZM20.129 8.12903V8.34432C19.9003 8.21106 19.6382 8.12903 19.3548 8.12903H15.4839C15.2005 8.12903 14.9384 8.21106 14.7097 8.34432V8.12903C14.7097 6.63527 15.9256 5.41935 17.4194 5.41935C18.9131 5.41935 20.129 6.63527 20.129 8.12903ZM0.774194 0.774194H17.0323L17.033 1.54839H0.774194V0.774194ZM1.54839 2.32258H16.2581V4.84835C14.907 5.32806 13.9355 6.61542 13.9355 8.12903V9.67742C13.9355 10.442 14.4933 11.0744 15.2227 11.1995C15.3523 11.5796 15.578 11.9148 15.871 12.178V12.3871H1.54839V2.32258ZM13.1613 15.0514C13.1613 14.5509 13.4803 14.1081 13.9555 13.9495L16.0859 13.2395L17.4194 15.4618L18.7528 13.2395L20.8832 13.9495C21.3584 14.1081 21.6774 14.5509 21.6774 15.0514V16.2581H13.1613V15.0514ZM14.7097 23.2258H13.9355V20.129H14.7097V23.2258ZM17.8065 23.2258H17.0323V20.129H17.8065V23.2258ZM20.9032 23.2258H20.129V20.129H20.9032V23.2258ZM22.4516 23.2258H21.6774V19.3548H19.3548V23.2258H18.5806V19.3548H16.2581V23.2258H15.4839V19.3548H13.1613V23.2258H12.3871V18.5806H22.4516V23.2258ZM11.6129 17.8065V17.0323H23.2258L23.2266 17.8065H11.6129Z" fill="#596E79"/>
<path d="M12.6588 5.0888L11.1692 3.5992L10.273 4.04753L9.95645 3.0968H7.8501L7.5335 4.04753L6.6374 3.5992L5.14779 5.0888L5.59613 5.98491L4.64502 6.3015V8.40785L5.59575 8.72445L5.14741 9.62055L6.63702 11.1102L7.53312 10.6618L7.84972 11.6129H9.95607L10.2727 10.6622L11.1688 11.1105L12.6584 9.62093L12.21 8.72483L13.1611 8.40823V6.30188L12.2104 5.98528L12.6588 5.0888ZM12.387 6.85984V7.85027L11.4982 8.14645L11.4332 8.31788C11.4141 8.36797 11.3945 8.41636 11.3735 8.46437L11.2984 8.63183L11.7169 9.46878L11.0166 10.1691L10.1797 9.75059L10.0122 9.82563C9.9642 9.84699 9.91581 9.86627 9.86572 9.88536L9.69429 9.95038L9.39811 10.8387H8.40768L8.1115 9.95L7.94007 9.88498C7.88998 9.86589 7.84159 9.84623 7.79358 9.82525L7.62612 9.75022L6.78917 10.1687L6.08888 9.4684L6.50736 8.63145L6.43232 8.46399C6.41096 8.41598 6.39168 8.36759 6.37259 8.3175L6.30757 8.14607L5.41921 7.84989V6.85947L6.30795 6.56328L6.37297 6.39185C6.39206 6.34176 6.41172 6.29337 6.4327 6.24537L6.50773 6.0779L6.08926 5.24095L6.78955 4.54067L7.6265 4.95914L7.79396 4.8841C7.84197 4.86274 7.89036 4.84346 7.94045 4.82437L8.11188 4.75935L8.40806 3.871H9.39849L9.69467 4.75973L9.8661 4.82475C9.91619 4.84384 9.96458 4.8635 10.0126 4.88448L10.1801 4.95952L11.017 4.54104L11.7173 5.24133L11.2988 6.07828L11.3739 6.24574C11.3952 6.29375 11.4145 6.34214 11.4336 6.39223L11.4986 6.56366L12.387 6.85984Z" fill="#596E79"/>
<path d="M8.90326 5.41931C7.83609 5.41931 6.96777 6.28763 6.96777 7.3548C6.96777 8.42196 7.83609 9.29028 8.90326 9.29028C9.97042 9.29028 10.8387 8.42196 10.8387 7.3548C10.8387 6.28763 9.97042 5.41931 8.90326 5.41931ZM8.90326 8.51609C8.26307 8.51609 7.74197 7.99498 7.74197 7.3548C7.74197 6.71461 8.26307 6.19351 8.90326 6.19351C9.54344 6.19351 10.0645 6.71461 10.0645 7.3548C10.0645 7.99498 9.54344 8.51609 8.90326 8.51609Z" fill="#596E79"/>
</svg>
