<svg width="18" height="21" viewBox="0 0 18 21" fill="none" xmlns="http://www.w3.org/2000/svg">
<path d="M14.9697 9.5C14.9697 6.43 13.3297 3.86 10.4697 3.18V2.5C10.4697 2.10218 10.3117 1.72064 10.0304 1.43934C9.74908 1.15804 9.36755 1 8.96973 1C8.5719 1 8.19037 1.15804 7.90907 1.43934C7.62776 1.72064 7.46973 2.10218 7.46973 2.5V3.18C4.59973 3.86 2.96973 6.42 2.96973 9.5V14.5L0.969727 16.5V17.5H16.9697V16.5L14.9697 14.5V9.5ZM8.96973 20.5C9.10415 20.5021 9.23837 20.4886 9.36973 20.46C9.68651 20.3925 9.98253 20.2502 10.2331 20.0449C10.4836 19.8396 10.6813 19.5773 10.8097 19.28C10.9112 19.0326 10.9622 18.7674 10.9597 18.5H6.95973C6.96342 19.031 7.17669 19.5391 7.55312 19.9137C7.92956 20.2882 8.43869 20.499 8.96973 20.5Z" stroke="#596E79"/>
</svg>
