<svg width="16" height="16" viewBox="0 0 16 16" fill="none" xmlns="http://www.w3.org/2000/svg">
<path d="M7.992 4.00037e-06C6.41009 0.00158591 4.86416 0.472122 3.54962 1.35213C2.23508 2.23215 1.21095 3.48213 0.606674 4.94408C0.00239909 6.40602 -0.154887 8.0143 0.154698 9.56562C0.464283 11.1169 1.22684 12.5417 2.34598 13.6597C3.46512 14.7777 4.89059 15.5388 6.44222 15.8469C7.99385 16.1549 9.60197 15.996 11.0633 15.3903C12.5247 14.7845 13.7736 13.7592 14.6523 12.4437C15.531 11.1283 16 9.58191 16 8C16 6.94876 15.7928 5.90781 15.3903 4.93669C14.9877 3.96556 14.3977 3.08329 13.654 2.34032C12.9103 1.59735 12.0275 1.00824 11.0559 0.60667C10.0844 0.205103 9.04325 -0.00104725 7.992 4.00037e-06ZM8 14.4C6.7342 14.4 5.49683 14.0247 4.44435 13.3214C3.39188 12.6182 2.57158 11.6186 2.08717 10.4492C1.60277 9.27973 1.47603 7.9929 1.72298 6.75143C1.96992 5.50995 2.57946 4.36958 3.47452 3.47452C4.36958 2.57946 5.50995 1.96992 6.75143 1.72298C7.9929 1.47603 9.27973 1.60277 10.4492 2.08718C11.6186 2.57158 12.6182 3.39188 13.3214 4.44435C14.0247 5.49683 14.4 6.7342 14.4 8C14.4 9.69739 13.7257 11.3253 12.5255 12.5255C11.3253 13.7257 9.69739 14.4 8 14.4ZM8.4 4H7.2V8.8L11.4 11.32L12 10.336L8.4 8.2V4Z" fill="#596E79"/>
</svg>
