<svg xmlns="http://www.w3.org/2000/svg" xmlns:xlink="http://www.w3.org/1999/xlink" viewBox="0 0 139.63 263.12"><defs><style>.cls-1,.cls-32,.cls-38{fill:none;}.cls-2{fill:#dadada;}.cls-3{fill:#737f86;}.cls-4{fill:#8d8f8f;}.cls-5{fill:#aeb0b0;}.cls-6{fill:#dcdcdc;}.cls-7{fill:#eaf6fe;}.cls-8{fill:#c9ddea;}.cls-9{fill:#37285e;}.cls-10{fill:#f2a68e;}.cls-11{fill:#d37d85;}.cls-12{fill:#fc9d83;}.cls-13{fill:#263139;}.cls-14{fill:#2a4b5b;}.cls-15{fill:#402f6d;}.cls-16{fill:#1e3642;}.cls-17{fill:#ffab91;}.cls-18{opacity:0.5;}.cls-19{clip-path:url(#clip-path);}.cls-20{fill:#1c0600;}.cls-21{fill:#f7a514;}.cls-22{fill:#e8c0a8;}.cls-23{fill:#0078b1;}.cls-24{fill:#00181e;}.cls-25{fill:#18435b;}.cls-26{fill:#1a4963;}.cls-27{fill:#cc9a7b;}.cls-28{fill:#9ac8d8;}.cls-29{fill:#7f4f22;}.cls-30{fill:url(#linear-gradient);}.cls-31{fill:#93712c;}.cls-32{stroke:#4b2b19;stroke-width:0.21px;}.cls-32,.cls-38{stroke-miterlimit:10;}.cls-33{fill:#a56052;}.cls-34{fill:#5ec0ee;}.cls-35{fill:#fff;}.cls-36{fill:#009fe3;}.cls-37{fill:#013752;}.cls-38{stroke:#013752;stroke-width:0.25px;}.cls-39{fill:#fdc300;}.cls-40{fill:#fe0;}</style><clipPath id="clip-path"><rect class="cls-1" x="56.46" y="102.29" width="24.73" height="24.73"/></clipPath><linearGradient id="linear-gradient" x1="-1192.98" y1="-5948.03" x2="-1192.78" y2="-5946.76" gradientTransform="matrix(-0.96, 0.29, 0.29, 0.96, 698.5, 6083.15)" gradientUnits="userSpaceOnUse"><stop offset="0" stop-color="#c9926a"/><stop offset="1" stop-color="#c9926a" stop-opacity="0"/></linearGradient></defs><title>Ресурс 3</title><g id="Слой_2" data-name="Слой 2"><g id="OBJECTS"><ellipse class="cls-2" cx="21.86" cy="185.99" rx="17.3" ry="1.55"/><ellipse class="cls-2" cx="70.68" cy="177.55" rx="51.96" ry="1.7"/><rect class="cls-3" x="64.7" width="0.32" height="26.82"/><rect class="cls-3" x="71.51" width="0.32" height="26.82"/><polygon class="cls-4" points="85.33 174.35 56.56 174.35 57.84 160.94 84.06 160.94 85.33 174.35"/><path class="cls-5" d="M47.3,173.73H93.44a3.63,3.63,0,0,1,3.63,3.63v0a0,0,0,0,1,0,0H43.67a0,0,0,0,1,0,0v0A3.63,3.63,0,0,1,47.3,173.73Z"/><rect class="cls-6" x="3.97" y="68.89" width="133.81" height="93.34" rx="6.92" ry="6.92"/><rect class="cls-7" x="7.97" y="73.47" width="124.73" height="69.72"/><rect class="cls-8" x="10.21" y="77.88" width="36.55" height="19.75"/><rect class="cls-8" x="10.21" y="99.23" width="36.55" height="19.75"/><rect class="cls-8" x="10.21" y="120.57" width="36.55" height="19.75"/><rect class="cls-8" x="90.29" y="77.88" width="10.67" height="39.73"/><rect class="cls-8" x="104.19" y="77.88" width="24.85" height="9.47"/><rect class="cls-8" x="104.19" y="90.19" width="24.85" height="49.45"/><rect class="cls-8" x="90.29" y="120.57" width="10.67" height="19.75"/><path class="cls-5" d="M4,148.22v10.19a3.82,3.82,0,0,0,3.82,3.82H134a3.82,3.82,0,0,0,3.82-3.82V148.22Z"/><rect class="cls-9" x="15.48" y="155.21" width="18.91" height="1.27"/><rect class="cls-9" x="17.02" y="141.27" width="18.91" height="1.27"/><rect class="cls-9" x="18.56" y="127.32" width="18.91" height="1.27"/><rect class="cls-9" x="20.09" y="113.38" width="18.91" height="1.27"/><path class="cls-9" d="M30.65,185.45l8.78-83.89a.81.81,0,0,1,.81-.73h0a.81.81,0,0,1,.81.9l-8.78,83.89a.81.81,0,0,1-.81.73h0A.81.81,0,0,1,30.65,185.45Z"/><path class="cls-9" d="M11.29,185.45l8.78-83.89a.81.81,0,0,1,.81-.73h0a.81.81,0,0,1,.81.9l-8.78,83.89a.81.81,0,0,1-.81.73h0A.81.81,0,0,1,11.29,185.45Z"/><rect class="cls-9" x="13.95" y="169.16" width="18.91" height="1.27"/><path class="cls-10" d="M20.06,120.81a5.55,5.55,0,0,1-1.28-1,2,2,0,0,1-.54-1.38.36.36,0,0,0-.3.19.8.8,0,0,0-.06.46,3.05,3.05,0,0,0,.06.37.61.61,0,0,0-.18.39,4.87,4.87,0,0,1,0,.55c0,.19-.15.36-.21.55-.13.45.05.94-.06,1.39h0c-.09.33-.18.63-.28.93.42.08.83.17,1.24.27l.72-.85a4.5,4.5,0,0,1,1.11-.93l.14-.08h0a6.7,6.7,0,0,0,.59-2.14.22.22,0,0,0,0-.18c-.06-.07-.17,0-.24,0a1.14,1.14,0,0,0-.43.78A2.44,2.44,0,0,1,20.06,120.81Z"/><path class="cls-11" d="M17.3,122.88c-.89,1.64-1.33,6.37.23,7.49,1.78-1.41,1.72-7.07,1.72-7.07S18,122.16,17.3,122.88Z"/><g id="g39743"><rect id="rect39745" class="cls-12" x="21.21" y="115.76" width="3.42" height="5.71" rx="1.2" ry="1.2"/><path id="path39755" class="cls-13" d="M26.8,167.12l-.23,2.07h3.71l-2.46-2Z"/><path id="path39757" class="cls-14" d="M28.52,139a3.44,3.44,0,0,0-3.5-3.3c-3.33,0-2.88,3.3-2.88,3.3l4.49,28.46h1.73Z"/><path id="path39759" class="cls-15" d="M27.19,113.21c0,2.6-2.24,5.67-5,5.67s-5-3.08-5-5.67.35-4.51,5-4.51S27.19,110.61,27.19,113.21Z"/><path id="path39763" class="cls-13" d="M18.21,167.12,18,169.19h3.71l-2.46-2Z"/><path id="path39765" class="cls-16" d="M23.49,139.42a3,3,0,0,0-3.09-3.25,3.16,3.16,0,0,0-3.29,3.25l1,28.07H19.8Z"/><path id="path39767" class="cls-14" d="M17.07,136.09v3.26s1.17,4.58,5.63,4.65h.5c4.22-.26,5.33-4.64,5.33-4.64v-3.26Z"/><path id="ellipse39769" class="cls-17" d="M22.94,110.15a4.8,4.8,0,0,1,4.64,4.61,4.24,4.24,0,0,1-4.16,4.61,4.8,4.8,0,0,1-4.64-4.61A4.24,4.24,0,0,1,22.94,110.15Z"/><path id="path39771" class="cls-15" d="M25,109.64c-3.78,0-5.3,1.36-5.3,1.36l-1.56,3,.56,2.89a6.26,6.26,0,0,0,1.57,1.8,4.44,4.44,0,0,0,3.34,0c1.17-.52,2.34-3.12,2.34-3.12l.43-2.68s2.55-.09,1.2-.77c-.79-.39-.56-1.71-1.44-2.48-.36,0-.74,0-1.14,0Z"/><path id="ellipse39773" class="cls-17" d="M26,113.76c.48,0,.89.63.92,1.41s-.33,1.41-.8,1.41-.89-.63-.92-1.41S25.49,113.76,26,113.76Z"/><path id="path39775" class="cls-15" d="M19.6,110.08c0,1-1.7,4.85-2,4.85s-.55-3.06-.55-4,.66-1.84,1.35-1.84C19.61,109.05,19.6,109.11,19.6,110.08Z"/><path id="path39777" class="cls-15" d="M26.72,110.44c0,.32-2.7.35-4.46.35s-3.2-.16-3.2-1.45,1.43-1.45,3.2-1.45C25.51,107.89,26.72,110.12,26.72,110.44Z"/><g id="g39779"><path class="cls-11" d="M41.5,123.62c-1.05.53-1.85,1.22-2.42.88s1.11-2.94,1.49-3.44,1.29-.28,1.84,1.08C42.61,122.67,42.36,123.19,41.5,123.62Z"/><path class="cls-11" d="M40.62,122.1a.37.37,0,0,1-.3-.59l1.37-1.87a.37.37,0,1,1,.6.44L40.92,122A.37.37,0,0,1,40.62,122.1Z"/><path id="path39783" class="cls-11" d="M27.2,123.54l6.6,5.38a1.85,1.85,0,0,1,.3,2.64,1.93,1.93,0,0,1-2.66-.05l-8-5.83c-1.53-1.22-.74-2.47.09-3.12C24.91,121.52,26.34,122.84,27.2,123.54Z"/><path id="path39785" class="cls-11" d="M32.37,131.83a1.88,1.88,0,0,0,2.63-.36L41.1,124l-1.6-1.41-7.13,6.63a1.81,1.81,0,0,0,0,2.66Z"/></g><path id="path39761" class="cls-11" d="M22.8,120.05c-4.26,0-5.73,3-5.73,8.72l-.53,8.7s1.54.55,6.09.55a18.45,18.45,0,0,0,7.23-1.25,58,58,0,0,0-1.32-8C27.33,123.11,27.06,120.05,22.8,120.05Z"/></g><g class="cls-18"><g class="cls-19"><path class="cls-20" d="M81.19,127H56.46V102.29H81.19V127ZM57.7,125.78H80V103.52H57.7v22.26Z"/></g><path class="cls-20" d="M78.43,113.67H70v-8.44h8.44v8.44Zm-7.06-1.37h5.69V106.6H71.36v5.69Z"/><polygon class="cls-20" points="69.19 112.82 69.19 112.3 67.67 112.3 67.67 105.23 66.3 105.23 66.3 106.91 66.3 106.91 66.3 112.3 64.78 112.3 60.6 112.3 60.6 106.6 60.6 106.6 60.6 105.23 59.23 105.23 59.23 113.67 64.78 113.67 67.67 113.67 67.81 113.67 67.81 114.84 69.19 114.84 69.19 112.82 69.19 112.82 69.19 112.82"/><polygon class="cls-20" points="59.23 124.07 60.6 124.07 60.6 122.89 60.6 122.89 60.6 117.2 66.3 117.2 66.3 122.47 66.3 122.47 66.3 124.07 67.67 124.07 67.67 115.83 59.23 115.83 59.23 124.07 59.23 124.07"/><polygon class="cls-20" points="78.42 115.83 69.99 115.83 69.99 124.07 71.36 124.07 71.36 122.47 71.36 122.47 71.36 117.2 77.05 117.2 77.05 122.47 77.06 122.47 77.06 124.07 78.42 124.07 78.42 115.83 78.42 115.83"/></g><path class="cls-21" d="M24.08,108s2.28,0,2.82.13,0,1.88-.07,1.94A16.15,16.15,0,0,1,24.08,108Z"/><path class="cls-22" d="M93.49,51.9s-2.17.2-2.28-.1.86-.5.86-.5-1.12-2.84-.91-3.07,2.74,2.65,2.74,2.65Z"/><path class="cls-23" d="M106.27,54.45c2.94-1.2,4,.49,3.92,1.52s-1.5,2.32-3.64,2.46c-7.93.5-13.37-6.12-13.4-6.23-.26-.89.11-1.21.78-1.54C98.13,54.63,102.08,56.17,106.27,54.45Z"/><path class="cls-24" d="M103.54,85.55a4.7,4.7,0,0,1-1.28,2.52c-.26.68,3-1,3.61-2,.32-.56-.68-1.24-.68-1.24Z"/><path class="cls-25" d="M102.6,68.87l0,0a12.91,12.91,0,0,0,.55-1.71l1,.12a15.86,15.86,0,0,0,2.27.49,2.11,2.11,0,0,1-.13,1.12Z"/><path class="cls-26" d="M100.69,73.81c.71-.87,5.48-5.46,5.11-6.06,2.16.11,8.05-1.87,8.05-1.87a3.27,3.27,0,0,1-.49,3.29,95.05,95.05,0,0,1-8.51,6.22c.54,4.87.83,6.18.71,9.43a4.72,4.72,0,0,1-2.12.79c-.55-3.21-2-6.18-3-9.3A2.48,2.48,0,0,1,100.69,73.81Z"/><path class="cls-22" d="M105.55,50.9l-.14,2s2.35-.39,3-1.34l-.09-1.88Z"/><path class="cls-27" d="M108.36,49.7l-2.85,1.09-.05,1.48a17.88,17.88,0,0,0,2.93-1.9Z"/><path class="cls-28" d="M105.21,52.63s0,2.78-2.31,14.41c0,0,7.14,3.26,11.25-1.19,0,0-1-11.4-5.62-14.86A14.62,14.62,0,0,0,105.21,52.63Z"/><path class="cls-22" d="M108.59,49.55s-3.55,3.62-4.94,2.88a11.46,11.46,0,0,1-1.44-2.24,10.45,10.45,0,0,1-1.38-4.47c0-2.19,1.7-5.64,3.85-5.44S111.94,42.08,108.59,49.55Z"/><path class="cls-22" d="M102.07,47.24h0l-.17-.23a13.06,13.06,0,0,1-1.38,1.94c1.5.86,2.45-.5,1.82-1.85a.83.83,0,0,0-.27.15C102,47.3,102,47.28,102.07,47.24Z"/><path class="cls-29" d="M106.94,46.84c.43.94,1.17,2.89,2,3a13.47,13.47,0,0,0,1.84-4c.3-1.26.25-3.75-1.73-4.82-1.94-1.25-3-1.37-3.9-1.22a10.84,10.84,0,0,0-2.55.94A3,3,0,0,0,101,44.45c.68.31,2.18-1.21,2.76-.59s.76,1.58,1.29,2.29S106.3,46.09,106.94,46.84Z"/><path class="cls-22" d="M107.11,46.32c0,.71-.59,1.58-1.05,1.55s-.81-.63-.76-1.34.33-1.66.95-1.58A1.26,1.26,0,0,1,107.11,46.32Z"/><path class="cls-30" d="M101.34,46c0,.31.15,1.42,1,1.3s.32-1.37.32-1.37S101.74,45.95,101.34,46Z"/><path class="cls-31" d="M101.52,45.88c.91-.23,1.66.07.82.23S101.05,46,101.52,45.88Z"/><path class="cls-32" d="M102.6,47.14c-.35-.43-.84-.12-.73.28"/><path class="cls-33" d="M104.48,49.1a.51.51,0,0,1,.24.48.9.9,0,0,1-.19.54,1.62,1.62,0,0,1-.45.34,1.64,1.64,0,0,1-.52.18,2.45,2.45,0,0,0,.85-.61.77.77,0,0,0,.21-.45A.62.62,0,0,0,104.48,49.1Z"/><path class="cls-29" d="M108.86,41.13c-.25-.7-1.68-2.63-5.46-1.84s-2.36,5.05-4.53,6.32c3,0,2.88-.57,3.83-1.42-.36,1.22.15,1,.51-.25-.05.93,1,1.84,1.86,2.21.11-1.13,2.23-3.75,2.23-3.75S108.71,41.93,108.86,41.13Z"/><path class="cls-22" d="M97.59,67.71s.18,1-.16,1.12c-.69.18-4.84,0-4.82-.25s2.85-.2,3.83-1.38C96.86,66.69,97.59,67.71,97.59,67.71Z"/><path class="cls-34" d="M105.42,55.92c1-3,2.74-3.41,3.65-2.91s1.47,2.34.69,4.34C106.87,64.74,98.12,68.13,98,68.1a3.78,3.78,0,0,1-2-1.19C99.34,64.79,103.72,60.87,105.42,55.92Z"/><rect class="cls-8" x="50.52" y="39.51" width="36.55" height="53.58"/><circle class="cls-35" cx="52.25" cy="41.51" r="0.55"/><circle class="cls-35" cx="85.39" cy="41.51" r="0.55"/><path class="cls-3" d="M66.76,34.44s0,0,0,.09A2.23,2.23,0,0,0,68.17,36a1.59,1.59,0,0,0,1.75-.57c.42-.71-.25-1.64-.37-1.79l-.8-.94A2.68,2.68,0,0,1,68,31.25h1.42a1.33,1.33,0,0,0,.29.75c.21.32.46.66.69,1a4.74,4.74,0,0,1,.33.62,2.43,2.43,0,0,1,.19.76,2.4,2.4,0,0,1-.33,1.46,1.89,1.89,0,0,1-1.26.84A2.56,2.56,0,0,1,68,36.6a1.94,1.94,0,0,1-1.25-2.07S66.74,34.44,66.76,34.44Z"/><path class="cls-36" d="M73.78,28.62a2.13,2.13,0,0,0-2.13-2.13,2.07,2.07,0,0,0-1.84,1.09,2.05,2.05,0,0,1-3.06-.14,2.12,2.12,0,1,0-3.46,2.45,6.67,6.67,0,0,0,5.06,2.21,6.77,6.77,0,0,0,4.48-1.51A2.62,2.62,0,0,0,73.78,28.62Z"/><path class="cls-23" d="M66.75,27.44a2.12,2.12,0,1,0-3.46,2.45,6.67,6.67,0,0,0,5.06,2.21h.06V28.19A1.84,1.84,0,0,1,66.75,27.44Z"/><circle class="cls-37" cx="71.66" cy="28.62" r="0.63" transform="translate(-3.05 9.32) rotate(-7.28)"/><circle class="cls-38" cx="71.66" cy="28.62" r="1.07" transform="translate(5.18 67.79) rotate(-52.28)"/><circle class="cls-38" cx="65" cy="28.62" r="1.07" transform="translate(2.6 62.52) rotate(-52.28)"/><circle class="cls-37" cx="65.01" cy="28.62" r="0.63" transform="translate(-3.1 8.47) rotate(-7.28)"/><path class="cls-3" d="M52.69,41.55c-.13,0-.3-.31-.13-.37s15.12-5.39,16.29-5.39,16,5.34,16.22,5.41,0,.42-.13.37-15.17-5.39-16.08-5.39S52.82,41.51,52.69,41.55Z"/><path class="cls-39" d="M111.29,43,97.86,45.21l-.08-.49L99.25,44a6.11,6.11,0,0,1,5.2-5.59C109.81,37.6,111.29,43,111.29,43Z"/><path class="cls-39" d="M16.78,115.45c1.07,1.76,5.13,2,7.14-.27,1.66-1.9,3.41-5.1,2.88-5.86-1.17-1.68-4.95-3-7.73-1.44A5.51,5.51,0,0,0,16.78,115.45Z"/><path class="cls-40" d="M17.72,113.26l1.42-.14s1.42-5.11,2.94-5.93a2.1,2.1,0,0,0-1.6.06C20,107.45,18.11,109.73,17.72,113.26Z"/><path class="cls-5" d="M3.92,204.17a6,6,0,0,1,6.28-6.09,5.8,5.8,0,0,1,4.38,1.74l-.8.8a4.75,4.75,0,0,0-3.54-1.42,5,5,0,1,0,0,9.92,4.7,4.7,0,0,0,3.54-1.44l.8.8a5.82,5.82,0,0,1-4.4,1.76A6,6,0,0,1,3.92,204.17Z"/><path class="cls-5" d="M29.32,199.28H25.11v10.88H23.86V199.28H19.65v-1.09h9.66Z"/><path class="cls-5" d="M45.36,202.29c0,2.55-1.85,4.09-4.89,4.09H37.25v3.78H36v-12h4.48C43.51,198.19,45.36,199.73,45.36,202.29Zm-1.27,0c0-1.92-1.27-3-3.66-3H37.25v6h3.18C42.83,205.27,44.09,204.17,44.09,202.29Z"/><path class="cls-5" d="M59.47,207H52.8l-1.44,3.2H50l5.47-12h1.25l5.47,12H60.9Zm-.46-1-2.87-6.43-2.87,6.43Z"/><path class="cls-5" d="M79,198.19v12H77.73v-5.53H70.24v5.53H69v-12h1.27v5.34h7.49v-5.34Z"/><path class="cls-5" d="M87.46,198.19h1.25v9.92l7.66-9.92h1.15v12H96.27v-9.9l-7.66,9.9H87.46Z"/><path class="cls-5" d="M117.63,209.07V213h-1.18v-2.8H106v-12h1.25v10.88h7.24V198.19h1.25v10.88Z"/><path class="cls-5" d="M132.28,207h-6.67l-1.44,3.2h-1.32l5.47-12h1.25l5.47,12h-1.33Zm-.46-1-2.87-6.43-2.87,6.43Z"/><path class="cls-5" d="M8.3,256.06c0,2.26-1.64,3.62-4.33,3.62H1.12V263H0V252.42H4C6.67,252.42,8.3,253.78,8.3,256.06Zm-1.12,0c0-1.7-1.12-2.67-3.24-2.67H1.12v5.3H3.94C6.06,258.69,7.18,257.72,7.18,256.06Z"/><path class="cls-5" d="M20.8,260.19H14.89L13.62,263H12.45l4.85-10.61h1.11L23.26,263H22.08Zm-.41-.91-2.55-5.7-2.55,5.7Z"/><path class="cls-5" d="M36.07,260.06c0,1.92-2,3.06-4.18,3.06A6.16,6.16,0,0,1,28,261.75l.41-.8a5.3,5.3,0,0,0,3.39,1.21c1.7,0,3.18-.82,3.18-2.26,0-1.24-1-1.92-2.77-1.92H29.91v-.91h2.21c1.5,0,2.38-.67,2.38-1.8,0-1.29-1.27-2-2.82-2a5.67,5.67,0,0,0-3,.88l-.38-.92a6.67,6.67,0,0,1,3.41-.94c2.12,0,3.91,1.06,3.91,2.88a2.36,2.36,0,0,1-1.79,2.33A2.64,2.64,0,0,1,36.07,260.06Z"/><path class="cls-5" d="M51.1,256.06c0,2.26-1.64,3.62-4.33,3.62H43.92V263H42.8V252.42h4C49.47,252.42,51.1,253.78,51.1,256.06Zm-1.12,0c0-1.7-1.12-2.67-3.24-2.67H43.92v5.3h2.82C48.86,258.69,50,257.72,50,256.06Z"/><path class="cls-5" d="M63.6,260.19H57.69L56.42,263H55.25l4.85-10.61h1.11L66.06,263H64.88Zm-.41-.91-2.55-5.7-2.55,5.7Z"/><path class="cls-5" d="M72,252.42h7.76v1H73.13v3.47H76.6c2.5,0,3.83,1,3.83,3S79,263,76.36,263H72Zm4.32,9.71c2,0,3-.76,3-2.23s-1-2.17-3-2.17H73.13v4.39Z"/><path class="cls-5" d="M86.06,257.72a5.57,5.57,0,1,1,5.58,5.39A5.34,5.34,0,0,1,86.06,257.72Zm10,0a4.46,4.46,0,1,0-4.44,4.39A4.3,4.3,0,0,0,96.07,257.72Z"/><path class="cls-5" d="M110.6,253.39h-3.73V263h-1.11v-9.64H102v-1h8.56Z"/><path class="cls-5" d="M120,258.16H117.6V263h-1.09V252.42h1.09v4.76H120l3.59-4.76h1.21l-3.94,5.15,4.17,5.46h-1.29Z"/><path class="cls-5" d="M130.72,252.42h1.11v8.79l6.79-8.79h1V263h-1.11v-8.77L131.74,263h-1Z"/><path class="cls-5" d="M28.07,234.08c0,2.14-1.71,3.37-5.11,3.37H16.73V225h5.85c3,0,4.79,1.1,4.79,3.19A2.92,2.92,0,0,1,25.07,231C27,231.37,28.07,232.42,28.07,234.08Zm-9.87-3.46h4.3c2.15,0,3.38-.78,3.38-2.3S24.65,226,22.5,226h-4.3ZM26.6,234c0-1.62-1.27-2.35-3.64-2.35H18.19v4.75H23C25.33,236.4,26.6,235.63,26.6,234Z"/><path class="cls-5" d="M35.85,231.21c0-3.65,3.14-6.34,7.38-6.34a7.3,7.3,0,0,1,5.15,1.82l-.95.84A6,6,0,0,0,43.27,226c-3.4,0-6,2.21-6,5.16s2.55,5.16,6,5.16a5.91,5.91,0,0,0,4.16-1.5l.95.84a7.32,7.32,0,0,1-5.17,1.83C39,237.55,35.85,234.86,35.85,231.21Z"/><path class="cls-5" d="M60.49,226.12H55.54v11.33H54.07V226.12H49.13V225H60.49Z"/><path class="cls-5" d="M71.41,234.12H63.57l-1.69,3.33H60.33L66.76,225h1.47l6.44,12.46H73.1ZM70.87,233l-3.38-6.7L64.11,233Z"/><path class="cls-5" d="M90.34,236.31v3.94H88.95v-2.8H76.66l0,2.8H75.25l0-3.94H76c2-.11,2.45-3.31,2.59-7.28l.16-4h9.49v11.33Zm-12.25,0h8.67V226.12H80l-.12,3C79.78,232.39,79.44,235.4,78.09,236.31Z"/><path class="cls-5" d="M93.37,225h1.47v10.33l9-10.33h1.35v12.46h-1.47V227.14l-9,10.31H93.37Z"/><path class="cls-5" d="M109.95,225h1.47v10.33l9-10.33h1.35v12.46H120.3V227.14l-9,10.31h-1.35Z"/></g></g></svg>