<svg xmlns="http://www.w3.org/2000/svg" viewBox="0 0 235.3 100"><defs><style>.cls-1{fill:#fff;}</style></defs><title>Ресурс 1</title><g id="Слой_2" data-name="Слой 2"><g id="Layer_1" data-name="Layer 1"><path class="cls-1" d="M2.12,40.42H40.41V2.13H2.12Zm40.41,2.12H0V0H42.53Z"/><path class="cls-1" d="M233.18,73.41H2.15V51.06h231ZM144.37,97.88H2.15V75.53H144.37ZM50.87,2.12H125V25.53H50.87Zm80.6,35.4,2.69-4.83h2.92l-3.34,5.7,3.56,6.24h-3.19l-2.68-4.81H129.7v4.81H127V39.82h-1.77l-2.68,4.81h-3.19l3.58-6.24-3.36-5.7h2.92l2.68,4.83H127V32.69h2.71v4.83Zm11.88-4.83h2.73l5.34,11.94h-2.9l-1.06-2.56h-5.54l-1.06,2.56H138Zm9.4,0h2.75v4.69h1.6a5.92,5.92,0,0,1,1.13-2.55,5.79,5.79,0,0,1,2.17-1.73,6.72,6.72,0,0,1,2.88-.61,6.54,6.54,0,0,1,3.23.8,5.86,5.86,0,0,1,2.26,2.21,6.52,6.52,0,0,1,0,6.33A5.86,5.86,0,0,1,166.53,44a6.54,6.54,0,0,1-3.23.8,6.68,6.68,0,0,1-2.93-.64,5.86,5.86,0,0,1-3.29-4.43H155.5v4.86h-2.75Zm18.61,0h2.75v9.69h3.77V32.69h2.75v9.69h3.75V32.69h2.75v9.69h1.62V47.1h-2.56V44.63H171.37Zm19,0h9v2.22h-6.28V37.5h5.54v2.15h-5.54v2.76h6.5v2.22h-9.24Zm11.21,0h2.75v7.78l5.7-7.78h2.59V44.63h-2.73V36.87l-5.7,7.76h-2.61Zm4.09-3.38q0,1.24,1.42,1.24a1.53,1.53,0,0,0,1-.32,1.22,1.22,0,0,0,.37-.93h1.89a2.4,2.4,0,0,1-.84,1.94,3.87,3.87,0,0,1-2.47.66q-3.27,0-3.31-2.61ZM117.37,37.5v2.15h-5.54v2.76h6.5v2.22h-9.24V32.69h9v2.22h-6.28V37.5ZM97.2,44.63V32.69h5.17a6.64,6.64,0,0,1,2.75.53,3.95,3.95,0,0,1,2.43,3.8,4.15,4.15,0,0,1-.63,2.29,4,4,0,0,1-1.8,1.5,6.71,6.71,0,0,1-2.75.52H100v3.29ZM94.27,37.5v2.15H88.73v2.76h6.5v2.22H86V32.69h9v2.22H88.73V37.5Zm-19-2.56v9.69H72.55V32.69H83.43V44.63H80.69V34.94ZM57.7,38.66a6,6,0,0,1,.84-3.16,6,6,0,0,1,2.34-2.21,7.38,7.38,0,0,1,6.69,0,6.09,6.09,0,0,1,0,10.74,7.39,7.39,0,0,1-6.69,0,6,6,0,0,1-2.34-2.21,6,6,0,0,1-.84-3.16M235.3,48.94H221.2V25.53h-94V0H48.74l.07,26.59V48.94H0V100H146.49V75.53H235.3Z"/><path class="cls-1" d="M104.1,38.55a1.87,1.87,0,0,0,.65-1.53,1.89,1.89,0,0,0-.65-1.54,2.9,2.9,0,0,0-1.89-.54H100v4.14h2.25a2.9,2.9,0,0,0,1.89-.54"/><polygon class="cls-1" points="144.7 35.4 142.81 39.97 146.59 39.97 144.7 35.4"/><path class="cls-1" d="M62.32,42a4,4,0,0,0,3.82,0,3.49,3.49,0,0,0,1.34-1.36,4.27,4.27,0,0,0,0-4,3.49,3.49,0,0,0-1.34-1.36,4,4,0,0,0-3.82,0A3.48,3.48,0,0,0,61,36.68a4.27,4.27,0,0,0,0,4A3.48,3.48,0,0,0,62.32,42"/><path class="cls-1" d="M161.51,42a3.6,3.6,0,0,0,3.58,0,3.36,3.36,0,0,0,1.26-1.35,4.55,4.55,0,0,0,0-4,3.36,3.36,0,0,0-1.26-1.35,3.6,3.6,0,0,0-3.58,0,3.36,3.36,0,0,0-1.26,1.35,4.55,4.55,0,0,0,0,4A3.36,3.36,0,0,0,161.51,42"/><polygon class="cls-1" points="20.7 56.76 20.7 68.69 17.95 68.69 17.95 59.01 12.57 59.01 12.57 68.69 9.82 68.69 9.82 56.76 20.7 56.76"/><path class="cls-1" d="M30.5,62.62a1.87,1.87,0,0,0,.65-1.53,1.89,1.89,0,0,0-.65-1.54A2.9,2.9,0,0,0,28.61,59H26.36v4.14h2.25a2.9,2.9,0,0,0,1.89-.54m1-5.33a3.95,3.95,0,0,1,2.43,3.8,4.15,4.15,0,0,1-.63,2.29,4,4,0,0,1-1.8,1.5,6.73,6.73,0,0,1-2.75.52h-2.4v3.29H23.59V56.76h5.17a6.64,6.64,0,0,1,2.75.53"/><path class="cls-1" d="M43.82,66.06a3.49,3.49,0,0,0,1.34-1.36,4.27,4.27,0,0,0,0-4,3.49,3.49,0,0,0-1.34-1.36,4,4,0,0,0-3.82,0,3.48,3.48,0,0,0-1.34,1.36,4.27,4.27,0,0,0,0,4A3.48,3.48,0,0,0,40,66.06a4,4,0,0,0,3.82,0m-5.26,2a6,6,0,0,1-2.34-2.21,6.35,6.35,0,0,1,0-6.33,6,6,0,0,1,2.34-2.21,7.39,7.39,0,0,1,6.69,0,6.09,6.09,0,0,1,0,10.74,7.39,7.39,0,0,1-6.69,0"/><path class="cls-1" d="M61.43,64.83a2.69,2.69,0,0,0,.89-2.16q0-2.73-3.58-3v6.12a4.79,4.79,0,0,0,2.69-.93m-5.24.93V59.64a4.85,4.85,0,0,0-2.7.91,2.64,2.64,0,0,0-.88,2.14q0,2.69,3.58,3.07m7.17.66a7.64,7.64,0,0,1-4.63,1.51v1.3H56.19V67.91a7.74,7.74,0,0,1-4.65-1.53,5,5,0,0,1,0-7.38,7.89,7.89,0,0,1,4.65-1.53V56.25h2.54v1.21A7.68,7.68,0,0,1,63.36,59a5.08,5.08,0,0,1,0,7.43"/><polygon class="cls-1" points="76.22 66.48 76.22 68.69 66.97 68.69 66.97 56.76 76 56.76 76 58.98 69.72 58.98 69.72 61.57 75.26 61.57 75.26 63.72 69.72 63.72 69.72 66.48 76.22 66.48"/><path class="cls-1" d="M80.68,68.11a5.92,5.92,0,0,1-2.32-2.2,6.42,6.42,0,0,1,0-6.36,5.92,5.92,0,0,1,2.32-2.2A6.89,6.89,0,0,1,84,56.55a7,7,0,0,1,2.81.55,5.62,5.62,0,0,1,2.11,1.57L87.13,60.3a3.81,3.81,0,0,0-3-1.4,4,4,0,0,0-2,.49,3.45,3.45,0,0,0-1.36,1.36,4.27,4.27,0,0,0,0,4,3.46,3.46,0,0,0,1.36,1.36,4,4,0,0,0,2,.49,3.8,3.8,0,0,0,3-1.42l1.77,1.64a5.53,5.53,0,0,1-2.11,1.59A7,7,0,0,1,84,68.9a6.85,6.85,0,0,1-3.3-.79"/><path class="cls-1" d="M92.83,68.11a5.92,5.92,0,0,1-2.32-2.2,6.41,6.41,0,0,1,0-6.36,5.92,5.92,0,0,1,2.32-2.2,6.89,6.89,0,0,1,3.32-.79A7,7,0,0,1,99,57.1a5.62,5.62,0,0,1,2.11,1.57L99.29,60.3a3.81,3.81,0,0,0-3-1.4,4,4,0,0,0-2,.49,3.45,3.45,0,0,0-1.36,1.36,4.27,4.27,0,0,0,0,4,3.46,3.46,0,0,0,1.36,1.36,4,4,0,0,0,2,.49,3.8,3.8,0,0,0,3-1.42l1.77,1.64a5.53,5.53,0,0,1-2.11,1.59,7,7,0,0,1-2.81.55,6.85,6.85,0,0,1-3.3-.79"/><polygon class="cls-1" points="102.84 56.76 105.58 56.76 105.58 64.53 111.28 56.76 113.87 56.76 113.87 68.69 111.14 68.69 111.14 60.94 105.45 68.69 102.84 68.69 102.84 56.76"/><path class="cls-1" d="M124.45,66.06a3.49,3.49,0,0,0,1.34-1.36,4.27,4.27,0,0,0,0-4,3.48,3.48,0,0,0-1.34-1.36,4,4,0,0,0-3.82,0,3.48,3.48,0,0,0-1.34,1.36,4.27,4.27,0,0,0,0,4,3.48,3.48,0,0,0,1.34,1.36,4,4,0,0,0,3.82,0m-5.26,2a6,6,0,0,1-2.34-2.21,6.35,6.35,0,0,1,0-6.33,6,6,0,0,1,2.34-2.21,7.39,7.39,0,0,1,6.69,0,6.09,6.09,0,0,1,0,10.74,7.39,7.39,0,0,1-6.69,0"/><polygon class="cls-1" points="142.15 56.76 142.15 68.69 139.39 68.69 139.39 63.8 133.97 63.8 133.97 68.69 131.21 68.69 131.21 56.76 133.97 56.76 133.97 61.47 139.39 61.47 139.39 56.76 142.15 56.76"/><path class="cls-1" d="M152.42,64l-1.89-4.57L148.63,64Zm.87,2.1h-5.54l-1.06,2.56h-2.83l5.32-11.94h2.73l5.34,11.94h-2.9Z"/><path class="cls-1" d="M170.19,56.76V68.7h-2.73V59h-4.09l-.08,2.49a25.48,25.48,0,0,1-.41,4.12A5.1,5.1,0,0,1,161.8,68a2.71,2.71,0,0,1-2.12.84,6.16,6.16,0,0,1-1.36-.19l.17-2.34a1.67,1.67,0,0,0,.49.07,1.43,1.43,0,0,0,1.38-1.17,14.3,14.3,0,0,0,.49-3.66l.17-4.84Z"/><path class="cls-1" d="M180,66.12a1.93,1.93,0,0,0,.61-1.53q0-1.86-2.29-1.86h-2.49v3.92h2.49a2.47,2.47,0,0,0,1.68-.53m2.22-4.47a3.53,3.53,0,0,1,1.17,2.88,3.79,3.79,0,0,1-1.29,3.09,5.53,5.53,0,0,1-3.62,1.07H173.1V56.76h2.75v3.92h3a5.11,5.11,0,0,1,3.35,1"/><polygon class="cls-1" points="196.22 56.76 196.22 68.69 193.46 68.69 193.46 63.8 188.04 63.8 188.04 68.69 185.28 68.69 185.28 56.76 188.04 56.76 188.04 61.47 193.46 61.47 193.46 56.76 196.22 56.76"/><path class="cls-1" d="M206.82,66.06a3.49,3.49,0,0,0,1.34-1.36,4.27,4.27,0,0,0,0-4,3.48,3.48,0,0,0-1.34-1.36,4,4,0,0,0-3.82,0,3.48,3.48,0,0,0-1.34,1.36,4.27,4.27,0,0,0,0,4A3.48,3.48,0,0,0,203,66.06a4,4,0,0,0,3.82,0m-5.26,2a6,6,0,0,1-2.34-2.21,6.35,6.35,0,0,1,0-6.33,6,6,0,0,1,2.34-2.21,7.39,7.39,0,0,1,6.69,0,6.09,6.09,0,0,1,0,10.74,7.39,7.39,0,0,1-6.69,0"/><path class="cls-1" d="M215.77,53.38h1.89q0,1.24,1.42,1.24a1.53,1.53,0,0,0,1-.32,1.22,1.22,0,0,0,.37-.93h1.89a2.4,2.4,0,0,1-.84,1.94,3.87,3.87,0,0,1-2.47.66q-3.27,0-3.31-2.61m-2.2,3.38h2.75v7.78l5.7-7.78h2.59V68.7h-2.73V60.94l-5.7,7.76h-2.61Z"/><polygon class="cls-1" points="20.7 81 20.7 92.94 17.95 92.94 17.95 83.25 12.57 83.25 12.57 92.94 9.82 92.94 9.82 81 20.7 81"/><path class="cls-1" d="M31.11,90.3a3.49,3.49,0,0,0,1.34-1.36,4.27,4.27,0,0,0,0-4,3.48,3.48,0,0,0-1.34-1.36,4,4,0,0,0-3.82,0A3.48,3.48,0,0,0,25.95,85a4.27,4.27,0,0,0,0,4,3.48,3.48,0,0,0,1.34,1.36,4,4,0,0,0,3.82,0m-5.26,2a6,6,0,0,1-2.34-2.21,6.35,6.35,0,0,1,0-6.33,6,6,0,0,1,2.34-2.21,7.39,7.39,0,0,1,6.69,0,6.09,6.09,0,0,1,0,10.74,7.39,7.39,0,0,1-6.69,0"/><path class="cls-1" d="M41,88.56a4.74,4.74,0,0,1-.84,2.12h5.34V83.25H41.43L41.38,85A25.08,25.08,0,0,1,41,88.56m8.9,2.12v4.72H47.37V92.94H38.94v2.47H36.38l0-4.72h.48q1.07,0,1.52-1.57a19.18,19.18,0,0,0,.55-4.38L39.08,81h9.17v9.69Z"/><polygon class="cls-1" points="60.05 83.25 54.37 83.25 54.39 92.94 51.64 92.94 51.64 81 60.07 81 60.05 83.25"/><path class="cls-1" d="M69.14,90.3a3.49,3.49,0,0,0,1.34-1.36,4.27,4.27,0,0,0,0-4,3.48,3.48,0,0,0-1.34-1.36,4,4,0,0,0-3.82,0A3.48,3.48,0,0,0,64,85a4.27,4.27,0,0,0,0,4,3.48,3.48,0,0,0,1.34,1.36,4,4,0,0,0,3.82,0m-5.26,2a6,6,0,0,1-2.34-2.21,6.35,6.35,0,0,1,0-6.33,6,6,0,0,1,2.34-2.21,7.39,7.39,0,0,1,6.69,0,6.09,6.09,0,0,1,0,10.74,7.39,7.39,0,0,1-6.69,0"/><polygon class="cls-1" points="84.77 83.25 80.95 83.25 80.95 92.94 78.22 92.94 78.22 83.25 74.42 83.25 74.42 81 84.77 81 84.77 83.25"/><path class="cls-1" d="M93.89,90.3a3.49,3.49,0,0,0,1.34-1.36,4.27,4.27,0,0,0,0-4,3.48,3.48,0,0,0-1.34-1.36,4,4,0,0,0-3.82,0A3.48,3.48,0,0,0,88.73,85a4.27,4.27,0,0,0,0,4,3.48,3.48,0,0,0,1.34,1.36,4,4,0,0,0,3.82,0m-5.26,2a6,6,0,0,1-2.34-2.21,6.35,6.35,0,0,1,0-6.33,6,6,0,0,1,2.34-2.21,7.39,7.39,0,0,1,6.69,0,6.09,6.09,0,0,1,0,10.74,7.39,7.39,0,0,1-6.69,0"/><path class="cls-1" d="M108.2,89.36q0-1.48-1.94-1.48h-3v3h3q1.94,0,1.94-1.54m-5-3.41h2.57a2.16,2.16,0,0,0,1.36-.37,1.48,1.48,0,0,0,0-2.16,2.13,2.13,0,0,0-1.36-.38h-2.57Zm7.2,1.82a2.82,2.82,0,0,1,.58,1.81,2.9,2.9,0,0,1-1.2,2.47,5.72,5.72,0,0,1-3.44.89h-5.88V81H106a5.65,5.65,0,0,1,3.24.8,2.61,2.61,0,0,1,1.16,2.28,2.78,2.78,0,0,1-.44,1.56,3.06,3.06,0,0,1-1.25,1.07,3.23,3.23,0,0,1,1.67,1.06"/><polygon class="cls-1" points="117.66 88.13 115.75 88.13 115.75 92.94 113.01 92.94 113.01 81 115.75 81 115.75 85.83 117.73 85.83 120.87 81 123.79 81 119.88 86.76 123.91 92.94 120.77 92.94 117.66 88.13"/><polygon class="cls-1" points="125.46 81 128.2 81 128.2 88.78 133.9 81 136.49 81 136.49 92.94 133.76 92.94 133.76 85.18 128.06 92.94 125.46 92.94 125.46 81"/><polygon class="cls-1" points="71.05 17.7 71.05 22.48 68.51 22.48 68.51 19.95 58.53 19.95 58.53 8.02 61.28 8.02 61.28 17.7 66.6 17.7 66.6 8.02 69.34 8.02 69.34 17.7 71.05 17.7"/><polygon class="cls-1" points="81.83 17.73 81.83 19.95 72.59 19.95 72.59 8.01 81.61 8.01 81.61 10.23 75.33 10.23 75.33 12.82 80.88 12.82 80.88 14.97 75.33 14.97 75.33 17.73 81.83 17.73"/><polygon class="cls-1" points="94.75 8.01 94.75 19.95 91.98 19.95 91.98 15.06 86.56 15.06 86.56 19.95 83.8 19.95 83.8 8.01 86.56 8.01 86.56 12.72 91.98 12.72 91.98 8.01 94.75 8.01"/><polygon class="cls-1" points="106.52 10.27 102.7 10.27 102.7 19.95 99.97 19.95 99.97 10.27 96.17 10.27 96.17 8.01 106.52 8.01 106.52 10.27"/><path class="cls-1" d="M114.84,13.87a1.87,1.87,0,0,0,.65-1.53,1.89,1.89,0,0,0-.65-1.54,2.9,2.9,0,0,0-1.89-.54H110.7v4.14h2.25a2.9,2.9,0,0,0,1.89-.54m1-5.33a3.95,3.95,0,0,1,2.43,3.8,4.15,4.15,0,0,1-.63,2.29,4,4,0,0,1-1.8,1.5,6.73,6.73,0,0,1-2.75.52h-2.4V20h-2.76V8h5.17a6.64,6.64,0,0,1,2.75.53"/><path class="cls-1" d="M25.62,17.23h9.79V7.43H25.62Zm12.15,2.36H23.26V5.07H37.77Z"/><polygon class="cls-1" points="21.88 18.12 21.88 17.23 19.27 17.23 19.27 5.07 16.92 5.07 16.92 7.96 16.91 7.96 16.91 17.23 14.31 17.23 7.12 17.23 7.12 7.43 7.12 5.07 4.76 5.07 4.76 19.59 14.31 19.59 19.27 19.59 19.52 19.59 19.52 21.61 21.88 21.61 21.88 18.12 21.88 18.12"/><polygon class="cls-1" points="4.76 37.48 7.12 37.48 7.12 35.46 7.12 25.66 16.91 25.66 16.91 34.72 16.92 34.72 16.92 37.48 19.27 37.48 19.27 23.3 4.76 23.3 4.76 37.48"/><polygon class="cls-1" points="37.77 23.3 23.26 23.3 23.26 37.48 25.62 37.48 25.62 34.72 25.62 34.72 25.62 25.66 35.41 25.66 35.41 34.72 35.42 34.72 35.42 37.48 37.77 37.48 37.77 23.3"/></g></g></svg>