<svg xmlns="http://www.w3.org/2000/svg" viewBox="0 0 42.53 42.54"><defs><style>.cls-1{fill:#fff;}</style></defs><title>Ресурс 1</title><g id="Слой_2" data-name="Слой 2"><g id="Слой_1-2" data-name="Слой 1"><path class="cls-1" d="M2.12,40.42H40.41V2.13H2.12Zm40.41,2.12H0V0H42.53Z"/><path class="cls-1" d="M25.62,17.23h9.79V7.43H25.62Zm12.15,2.36H23.26V5.07H37.77Z"/><polygon class="cls-1" points="21.88 18.12 21.88 17.23 19.27 17.23 19.27 5.07 16.92 5.07 16.92 7.96 16.91 7.96 16.91 17.23 14.31 17.23 7.12 17.23 7.12 7.43 7.12 5.07 4.76 5.07 4.76 19.59 14.31 19.59 19.27 19.59 19.52 19.59 19.52 21.61 21.88 21.61 21.88 18.12 21.88 18.12"/><polygon class="cls-1" points="4.76 37.48 7.12 37.48 7.12 35.46 7.12 25.66 16.91 25.66 16.91 34.72 16.92 34.72 16.92 37.48 19.27 37.48 19.27 23.3 4.76 23.3 4.76 37.48"/><polygon class="cls-1" points="37.77 23.3 23.26 23.3 23.26 37.48 25.62 37.48 25.62 34.72 25.62 34.72 25.62 25.66 35.41 25.66 35.41 34.72 35.42 34.72 35.42 37.48 37.77 37.48 37.77 23.3"/></g></g></svg>